<svg id="visual" viewBox="0 0 2000 600" width="2000" height="600" xmlns="http://www.w3.org/2000/svg" xmlns:xlink="http://www.w3.org/1999/xlink" version="1.1"><rect x="0" y="0" width="2000" height="600" fill="#fff"></rect><path d="M0 329L47.7 341.5C95.3 354 190.7 379 285.8 382.8C381 386.7 476 369.3 571.2 386.5C666.3 403.7 761.7 455.3 857 473.8C952.3 492.3 1047.7 477.7 1143 474.2C1238.3 470.7 1333.7 478.3 1428.8 464.2C1524 450 1619 414 1714.2 408.8C1809.3 403.7 1904.7 429.3 1952.3 442.2L2000 455L2000 601L1952.3 601C1904.7 601 1809.3 601 1714.2 601C1619 601 1524 601 1428.8 601C1333.7 601 1238.3 601 1143 601C1047.7 601 952.3 601 857 601C761.7 601 666.3 601 571.2 601C476 601 381 601 285.8 601C190.7 601 95.3 601 47.7 601L0 601Z" fill="#FF4B4B" stroke-linecap="round" stroke-linejoin="miter"></path></svg>