<svg id="visual" viewBox="0 0 2000 600" width="2000" height="600" xmlns="http://www.w3.org/2000/svg" xmlns:xlink="http://www.w3.org/1999/xlink" version="1.1"><rect x="0" y="0" width="2000" height="600" fill="#fff"></rect><path d="M0 269L47.7 256.5C95.3 244 190.7 219 285.8 215.2C381 211.3 476 228.7 571.2 211.5C666.3 194.3 761.7 142.7 857 124.2C952.3 105.7 1047.7 120.3 1143 123.8C1238.3 127.3 1333.7 119.7 1428.8 133.8C1524 148 1619 184 1714.2 189.2C1809.3 194.3 1904.7 168.7 1952.3 155.8L2000 143L2000 0L1952.3 0C1904.7 0 1809.3 0 1714.2 0C1619 0 1524 0 1428.8 0C1333.7 0 1238.3 0 1143 0C1047.7 0 952.3 0 857 0C761.7 0 666.3 0 571.2 0C476 0 381 0 285.8 0C190.7 0 95.3 0 47.7 0L0 0Z" fill="#FF4B4B" stroke-linecap="round" stroke-linejoin="miter"></path></svg>